<svg xmlns="http://www.w3.org/2000/svg" width="55.413" height="55.442" viewBox="0 0 55.413 55.442">
  <g id="Group_428" data-name="Group 428" transform="translate(0)">
    <path id="Path_374" data-name="Path 374" d="M29.753,131.576c-.337,2.68-.094,5.372-1,7.916-.278.776-.568,1.549-.881,2.311a8.119,8.119,0,0,1-2.126,2.882,39.51,39.51,0,0,0-11.062,17.468.645.645,0,0,1-.745.555C9.321,162.69,4.708,162.7,0,162.7v-.622c0-3.326-.008-6.653.014-9.979a1.824,1.824,0,0,1,.307-.94c.594-.894,1.237-1.755,1.9-2.684.2.216.352.4.526.572a3.985,3.985,0,0,0,2.491,1.2A2.353,2.353,0,0,0,7.8,147.159a4.641,4.641,0,0,0-1.944-2.7c-.153-.106-.309-.209-.519-.35.852-1.176,1.656-2.345,2.522-3.466.787-1.018,1.652-1.975,2.462-2.976a.66.66,0,0,1,.914-.235,4.393,4.393,0,0,0,3.843-.176A2.391,2.391,0,0,0,15.5,133a1.123,1.123,0,0,1-.118-.133,62.531,62.531,0,0,1,9.114-6.054c-.138,3.344,2.376,5.628,5.254,4.76M9.232,144.722a2.319,2.319,0,0,0,2.7,2.357,4.65,4.65,0,0,0,3.829-3.79,2.338,2.338,0,0,0-2.419-2.75,4.577,4.577,0,0,0-4.107,4.183m10.138,3.21a4.331,4.331,0,0,0,2.731-.891,2.313,2.313,0,0,0,.01-3.762,4.612,4.612,0,0,0-5.515.048,2.3,2.3,0,0,0-.008,3.653,4.3,4.3,0,0,0,2.782.953M4.638,160.423a4.537,4.537,0,0,0,4.148-3.869,2.326,2.326,0,0,0-2.945-2.6,4.471,4.471,0,0,0-3.48,3.388,2.318,2.318,0,0,0,2.277,3.083m12.469-6.988a4.548,4.548,0,0,0-3.818-4.144,2.305,2.305,0,0,0-2.7,2.561,4.546,4.546,0,0,0,4.073,3.954,2.253,2.253,0,0,0,2.445-2.371m5.065-14.244a4.536,4.536,0,0,0,4.151-3.927,2.309,2.309,0,0,0-2.781-2.578,4.732,4.732,0,0,0-3.685,3.531,2.334,2.334,0,0,0,2.314,2.975" transform="translate(0 -107.275)" fill="red"/>
    <path id="Path_375" data-name="Path 375" d="M218.334,84.267a52.278,52.278,0,0,1-21.671,20.606c.232-.947.555-1.992.732-3.061a23.357,23.357,0,0,0,.332-3.435A14.076,14.076,0,0,1,209.691,84.4a7.114,7.114,0,0,1,1.145-.124c2.478-.011,4.955-.006,7.5-.006" transform="translate(-166.359 -71.281)" fill="#14b8ff"/>
    <path id="Path_376" data-name="Path 376" d="M173.972,18.062c1.187-.965,2.342-1.857,3.445-2.809A51.179,51.179,0,0,0,189,.805a1.1,1.1,0,0,1,1.143-.688c2.383.042,4.767.017,7.151.017h.523a11.5,11.5,0,0,0-1.676.9,2.281,2.281,0,0,0-.022,3.75,4.569,4.569,0,0,0,5.422.011,8.638,8.638,0,0,0,1-1.189c0,.739-.057,1.531.013,2.312a4.356,4.356,0,0,1-.913,3.216,13.546,13.546,0,0,0-1.063,1.712.678.678,0,0,1-.692.375c-2.345-.013-4.691-.043-7.036,0q-10.289.19-14.778,9.474c-.047.1-.1.193-.173.335a4.743,4.743,0,0,0-3.928-2.965m15.644-8.2a4.529,4.529,0,0,0,4.177-3.9,2.331,2.331,0,0,0-2.978-2.567,4.493,4.493,0,0,0-3.444,3.357,2.324,2.324,0,0,0,2.244,3.109" transform="translate(-147.165 -0.099)" fill="red"/>
    <path id="Path_377" data-name="Path 377" d="M106.176,116.438c.59-1.493,1.08-2.905,1.7-4.26A37.332,37.332,0,0,1,123.217,95a53.24,53.24,0,0,0,16.038-13.934c1.976-2.639,3.663-5.495,5.481-8.252l.451-.684c0,1.22.007,2.287-.008,3.354A.96.96,0,0,1,145,75.9a54.355,54.355,0,0,1-14.365,16.353c-2.305,1.717-4.781,3.209-7.212,4.751a35.826,35.826,0,0,0-15.042,18.871c-.15.428-.324.636-.8.577a12.833,12.833,0,0,0-1.4-.01" transform="translate(-89.815 -61.016)" fill="#206aa3"/>
    <path id="Path_378" data-name="Path 378" d="M.028,41.087c0-1.106,0-2.057.006-3.008a.585.585,0,0,1,.129-.309C2.33,34.835,4.391,31.812,6.7,28.99A51.2,51.2,0,0,1,20.952,17.356,46.061,46.061,0,0,0,37.446.943C37.868.24,38.294-.1,39.1.028a6.624,6.624,0,0,0,.989.008c-.1.208-.162.36-.243.5A49,49,0,0,1,21.324,19.294,49.635,49.635,0,0,0,5.078,34.051C3.57,36.208,2.022,38.337.491,40.478c-.117.164-.244.321-.464.609" transform="translate(-0.023 0)" fill="#206aa3"/>
    <path id="Path_379" data-name="Path 379" d="M233.159,246.456l-5.528-1.845c.114-1.023.227-2.03.338-3.038.173-1.566.356-3.131.508-4.7a.723.723,0,0,1,.608-.754c.483-.117.938-.357,1.424-.453a1.525,1.525,0,0,0,1.174-1.1c.745-1.829,1.545-3.634,2.444-5.455l1.807,8.115c-1.024.513-2.037,1.048-3.075,1.529a.78.78,0,0,0-.546.99c.323,2.2.564,4.416.846,6.707" transform="translate(-192.555 -193.812)" fill="#206aa3"/>
    <path id="Path_380" data-name="Path 380" d="M307.133,204.358c.207.225.339.355.457.5,1.279,1.533,2.549,3.075,3.841,4.6a.6.6,0,0,1,.1.8c-.5.929-.93,1.894-1.432,2.822a.639.639,0,0,0,.112.849c1.4,1.656,2.781,3.33,4.167,5a.7.7,0,0,1,.043.13c-.231.052-.458.108-.686.154-1.147.231-2.3.447-3.439.7a.454.454,0,0,1-.6-.241c-1.1-1.955-2.227-3.9-3.321-5.858a.707.707,0,0,1,.047-.6c.431-.7.926-1.367,1.349-2.075a1.41,1.41,0,0,0,.188-.84c-.249-1.938-.534-3.871-.826-5.936" transform="translate(-259.127 -172.869)" fill="#206aa3"/>
    <path id="Path_381" data-name="Path 381" d="M325.276,14.17a9.347,9.347,0,0,1-1.471-.5c-.5-.267-.475-.716-.021-1.054a3.069,3.069,0,0,1,3.01.01c.45.344.465.785-.044,1.052a9.443,9.443,0,0,1-1.474.5" transform="translate(-273.599 -10.339)" fill="#d90000"/>
    <path id="Path_382" data-name="Path 382" d="M173.373,131.146c.019.368-.206.513-.57.508a2.764,2.764,0,0,1-2.257-2.274c0-.379.149-.566.541-.565a2.721,2.721,0,0,1,2.285,2.33" transform="translate(-144.267 -108.967)" fill="#d90000"/>
    <path id="Path_383" data-name="Path 383" d="M23.256,249.553a2.665,2.665,0,0,1,1.824,1.982c.064.58-.158.805-.728.687a2.7,2.7,0,0,1-1.78-1.341.475.475,0,0,1,.033-.408c.2-.323.436-.622.651-.92" transform="translate(-19.066 -211.099)" fill="#d90000"/>
    <path id="Path_384" data-name="Path 384" d="M78.535,176.86c.544-.511.995-.949,1.461-1.37.265-.239.767-.087,1.066.293.267.339.083.587-.185.769a2.633,2.633,0,0,1-2.342.308" transform="translate(-66.434 -148.352)" fill="#d90000"/>
    <path id="Path_385" data-name="Path 385" d="M340.857.371h2.82V2.5c-.664-1.239-1.119-1.591-2.82-2.127" transform="translate(-288.334 -0.314)" fill="red"/>
    <path id="Path_386" data-name="Path 386" d="M74.758,228.389a2.844,2.844,0,0,1-2.274,2.366.514.514,0,0,1-.585-.606,2.835,2.835,0,0,1,2.3-2.257c.394,0,.549.207.558.5" transform="translate(-60.819 -192.776)" fill="#d90000"/>
    <path id="Path_387" data-name="Path 387" d="M115.64,239.216a9.23,9.23,0,0,1,1.466.481c.533.276.515.737.03,1.085a3.081,3.081,0,0,1-2.962,0c-.483-.348-.5-.807.035-1.086a9.167,9.167,0,0,1,1.431-.478" transform="translate(-96.273 -202.355)" fill="#d90000"/>
    <path id="Path_388" data-name="Path 388" d="M29.581,315.041a2.732,2.732,0,0,1-2.291,2.327.478.478,0,0,1-.538-.522,2.721,2.721,0,0,1,2.327-2.318c.367.011.515.2.5.514" transform="translate(-22.63 -266.061)" fill="#d90000"/>
    <path id="Path_389" data-name="Path 389" d="M80.646,285.141c-.024-.386.163-.568.582-.549a2.774,2.774,0,0,1,2.243,2.222c.021.449-.182.633-.613.609a2.767,2.767,0,0,1-2.211-2.282" transform="translate(-68.218 -240.738)" fill="#d90000"/>
    <path id="Path_390" data-name="Path 390" d="M142.789,176.76c.384-.025.56.152.563.54a2.751,2.751,0,0,1-2.3,2.3c-.38-.01-.544-.2-.537-.581a2.744,2.744,0,0,1,2.27-2.255" transform="translate(-118.866 -149.521)" fill="#d90000"/>
    <path id="Path_391" data-name="Path 391" d="M275.167,33.593a2.768,2.768,0,0,1-2.235,2.232c-.4.012-.6-.161-.588-.582a2.741,2.741,0,0,1,2.271-2.252c.428-.005.568.148.552.6" transform="translate(-230.378 -27.908)" fill="#d90000"/>
  </g>
</svg>
