<svg xmlns="http://www.w3.org/2000/svg" width="163.913" height="131.061" viewBox="0 0 163.913 131.061">
  <g id="Group_673" data-name="Group 673" transform="translate(-1328 -1133.72)">
    <path id="Path_368" data-name="Path 368" d="M323.694,90.443c-1.04,2.246-2.1,4.485-3.1,6.745a1.7,1.7,0,0,0-.091,1.154c3.075,8.46,1.39,16.376-2.817,23.949-4.576,8.237-11.288,14.5-18.843,19.944-.814.586-1.655,1.133-2.683,1.834.7-2.811,1.3-5.381,2.016-7.919.123-.437.7-.769,1.106-1.1,5.984-4.836,11.284-10.264,14.665-17.292,2.368-4.924,3.468-10.059,2.073-15.5-.091-.355-.242-.695-.4-1.153-5.408,2.082-10.431,1.469-14.726-2.437-4.326-3.933-5.362-8.886-3.732-14.621a9.435,9.435,0,0,0-1.356-.623c-3.831-1.1-7.68-2.142-11.495-3.3a3.969,3.969,0,0,1-1.958-1.338c-1.085-1.5-1.984-3.136-3.207-5.123,3.068.571,5.792.9,8.411,1.609,3.844,1.044,7.606,2.39,11.425,3.532a2.211,2.211,0,0,0,1.775-.209c8.409-7.172,20.206-3.321,22.679,7.437a2.958,2.958,0,0,0,.264.569ZM310.1,80.45a8.08,8.08,0,0,0-8.22,8.017,8.174,8.174,0,0,0,8.093,8.347,8.262,8.262,0,0,0,8.259-8.22A8.159,8.159,0,0,0,310.1,80.45" transform="translate(1168.219 1091.553)" fill="#206aa3"/>
    <path id="Path_369" data-name="Path 369" d="M189,84.265c-.369,23.043-16.973,42.634-39.389,46.224-23.221,3.719-45.881-11.1-52.074-34-2.909-10.759-1.622-21.226,2.022-31.546,4.579-12.962,11.473-24.7,19.15-36.015A292.76,292.76,0,0,1,139.668,1.7c1.952-2.253,3.435-2.27,5.351-.027,12.663,14.833,24.256,30.417,33.322,47.754,4.258,8.142,7.845,16.562,9.516,25.66.556,3.027.77,6.118,1.14,9.179m-57.56-2.418V95.109c0,.053,0,.106,0,.16.058,1.972.98,2.994,2.921,3.023,2.875.044,5.756.092,8.626-.039a10.7,10.7,0,0,0,10.246-10.621q.1-5.67,0-11.344a10.822,10.822,0,0,0-10.851-10.721c-2.556-.036-5.113-.021-7.669,0-2.3.015-3.263,1-3.27,3.341-.012,4.314,0,8.628,0,12.942m32.737,11v-1.93q0-11.03-.006-22.06c0-2.076-1-3.263-2.667-3.284s-2.775,1.219-2.78,3.215q-.028,13.188,0,26.376c.006,2.133,1.021,3.126,3.162,3.138q7.752.044,15.506,0c1.959-.009,3.113-1.013,3.157-2.625.046-1.677-1.157-2.8-3.156-2.822-3.783-.035-7.567-.011-11.349-.012h-1.87m-51.89,0V69.961c0-.373,0-.746,0-1.119-.03-2.043-1.029-3.257-2.688-3.271s-2.756,1.243-2.76,3.23q-.022,13.109,0,26.219c0,2.313.98,3.274,3.335,3.286,4.53.023,9.059.01,13.59.006a21.078,21.078,0,0,0,2.554-.063,2.67,2.67,0,0,0,.422-5.2,6.94,6.94,0,0,0-1.893-.19c-4.1-.016-8.2-.008-12.556-.008" transform="translate(1273.088 1133.72)" fill="#d90000"/>
    <path id="Path_370" data-name="Path 370" d="M37.091,171.548c2.716.675,5.3,1.3,7.864,1.968a3.2,3.2,0,0,1,1.533.71c1.642,1.805,3.2,3.688,5.093,5.9-2.853-.465-5.4-.776-7.9-1.315-2.7-.583-5.382-1.308-8.026-2.116a2.018,2.018,0,0,0-2.437.68c-4.963,5.252-11.069,7.327-18.141,5.773A18,18,0,0,1,.953,170.192c-2.361-7.717-.263-14.378,5.506-19.956a2.7,2.7,0,0,0,.969-1.635c-.441-8.55,2.737-15.854,7.719-22.508,6.514-8.7,15.026-15.049,24.386-20.346,2.771-1.568,5.644-2.956,8.471-4.426l.305.28c-1.311,2.551-2.582,5.124-3.968,7.633-.244.443-.96.632-1.47.918-7.863,4.411-15.119,9.6-21.073,16.451-4.48,5.15-7.926,10.833-8.807,17.775-.054.422-.093.848-.109,1.274a3.506,3.506,0,0,0,.085.625c15-5.011,29.629,9.438,24.125,25.27m-4.317-7.1a13.639,13.639,0,1,0-13.516,13.743,13.657,13.657,0,0,0,13.516-13.743" transform="translate(1328 1075.722)" fill="#206aa3"/>
    <path id="Path_372" data-name="Path 372" d="M191.9,166.064c1.978,0,3.786-.064,5.589.015a5.352,5.352,0,0,1,5.22,5.385q.078,5.508,0,11.018a5.273,5.273,0,0,1-5.195,5.377c-1.844.073-3.693.014-5.616.014Z" transform="translate(1218.154 1038.677)" fill="#d90000"/>
    <path id="Path_373" data-name="Path 373" d="M25.622,237.958a8.279,8.279,0,0,1,7.994-7.978,2.731,2.731,0,0,1,2.879,2.419,2.529,2.529,0,0,1-2.269,2.938c-1.991.263-3.034,1.2-3.225,3.257a2.544,2.544,0,0,1-2.962,2.25,2.735,2.735,0,0,1-2.416-2.885" transform="translate(1313.334 1002.077)" fill="#14b8ff"/>
  </g>
</svg>
