<svg id="Group_329" data-name="Group 329" xmlns="http://www.w3.org/2000/svg" xmlns:xlink="http://www.w3.org/1999/xlink" width="58.695" height="68.846" viewBox="0 0 58.695 68.846">
  <defs>
    <clipPath id="clip-path">
      <rect id="Rectangle_3" data-name="Rectangle 3" width="58.695" height="68.846" fill="#098fc9"/>
    </clipPath>
  </defs>
  <g id="Group_61" data-name="Group 61" clip-path="url(#clip-path)">
    <path id="Path_281" data-name="Path 281" d="M21.834,89.517c-1.274-.22-2.559-.393-3.821-.668A23.126,23.126,0,0,1,.233,69.976,25.052,25.052,0,0,1,1.844,57.45,67.719,67.719,0,0,1,9.261,43.565c2.852-4.315,5.759-8.593,8.617-12.9.729-1.1,1.344-2.274,2.043-3.394a4.395,4.395,0,0,1,7.434-.058q5.318,8.156,10.656,16.3a72.184,72.184,0,0,1,7.111,13.068A27.561,27.561,0,0,1,47.26,67.841a21.59,21.59,0,0,1-5.393,13.384A23.167,23.167,0,0,1,25.978,89.4a4.111,4.111,0,0,0-.513.117Zm2.34-10.293a4.111,4.111,0,0,0-1.916-3.639,17.359,17.359,0,0,1-6.135-7.562,24.609,24.609,0,0,1-1.536-6.3A4.164,4.164,0,0,0,10.211,58.1a4.19,4.19,0,0,0-4.225,3.96A25.733,25.733,0,0,0,6.513,70.2c1.572,6.44,5.3,11,11.665,13.21a4.419,4.419,0,0,0,6-4.183" transform="translate(0.001 -20.672)" fill="#098fc9"/>
    <path id="Path_282" data-name="Path 282" d="M178.14,0a5.541,5.541,0,0,1,3.286,2.831c2.558,4.05,5.224,8.031,7.878,12.019A81.586,81.586,0,0,1,196.392,27.1a27.2,27.2,0,0,1,2.6,10.417c.134,6.554-2.538,11.844-7.39,16.1-1.1.965-2.378,1.73-3.574,2.587l-.143-.131a.934.934,0,0,1,.041-.205c2.656-5.967,2.576-12.03.646-18.16A59.276,59.276,0,0,0,181.4,23.257c-2.857-4.391-5.822-8.712-8.73-13.07-.571-.856-1.121-1.729-1.633-2.621a.89.89,0,0,1,0-.756c.947-1.6,1.952-3.161,2.9-4.759A4.446,4.446,0,0,1,176.8,0Z" transform="translate(-140.303)" fill="#83daff"/>
    <path id="Path_283" data-name="Path 283" d="M46.029,225.562c.022-.367.048-1.06.111-1.751a1.879,1.879,0,0,1,1.938-1.824,1.913,1.913,0,0,1,1.983,1.791,23.727,23.727,0,0,0,1.376,6,19.318,19.318,0,0,0,7.028,9.1,2.108,2.108,0,0,1,1.091,2.074,2.061,2.061,0,0,1-2.876,1.715,14.689,14.689,0,0,1-9.447-9.4,22.747,22.747,0,0,1-1.2-7.707" transform="translate(-37.777 -182.189)" fill="#098fc9"/>
  </g>
</svg>
