<svg id="Group_429" data-name="Group 429" xmlns="http://www.w3.org/2000/svg" width="76.011" height="60.777" viewBox="0 0 76.011 60.777">
  <path id="Path_392" data-name="Path 392" d="M299.8,81.446c-.482,1.042-.972,2.08-1.439,3.128a.788.788,0,0,0-.042.535c1.426,3.923.644,7.594-1.306,11.106a28.86,28.86,0,0,1-8.738,9.248c-.377.272-.768.525-1.244.851.326-1.3.6-2.5.935-3.672.057-.2.324-.357.513-.509a23.64,23.64,0,0,0,6.8-8.019,10.285,10.285,0,0,0,.961-7.189c-.042-.165-.112-.322-.187-.535a6.365,6.365,0,0,1-8.56-7.91,4.375,4.375,0,0,0-.629-.289c-1.776-.512-3.561-.993-5.331-1.529a1.841,1.841,0,0,1-.908-.62c-.5-.7-.92-1.454-1.487-2.375,1.423.265,2.686.416,3.9.746,1.783.484,3.527,1.108,5.3,1.638a1.025,1.025,0,0,0,.823-.1A6.3,6.3,0,0,1,299.678,79.4a1.368,1.368,0,0,0,.123.264Zm-6.3-4.634a3.747,3.747,0,0,0-3.812,3.718,3.791,3.791,0,0,0,3.753,3.871,3.832,3.832,0,0,0,3.83-3.812,3.783,3.783,0,0,0-3.771-3.776" transform="translate(-223.789 -59.058)" fill="#206aa3"/>
  <path id="Path_393" data-name="Path 393" d="M17.2,133.888c1.259.313,2.456.6,3.647.913a1.486,1.486,0,0,1,.711.329c.761.837,1.483,1.71,2.362,2.737-1.323-.216-2.505-.36-3.665-.61-1.253-.27-2.5-.606-3.722-.981a.936.936,0,0,0-1.13.315,8.484,8.484,0,0,1-8.413,2.677,8.348,8.348,0,0,1-6.548-6.01,8.611,8.611,0,0,1,2.553-9.254,1.25,1.25,0,0,0,.45-.758A15.733,15.733,0,0,1,7.024,112.81a35.54,35.54,0,0,1,11.309-9.435c1.285-.727,2.617-1.371,3.928-2.053l.142.13c-.608,1.183-1.2,2.376-1.84,3.54-.113.205-.445.293-.682.426a35.978,35.978,0,0,0-9.772,7.629,15.484,15.484,0,0,0-4.084,8.243c-.025.2-.043.393-.051.591a1.626,1.626,0,0,0,.039.29A9,9,0,0,1,17.2,133.888m-2-3.291A6.325,6.325,0,1,0,8.93,136.97,6.333,6.333,0,0,0,15.2,130.6" transform="translate(0 -81.231)" fill="#206aa3"/>
  <path id="Path_394" data-name="Path 394" d="M25.621,233.68a3.839,3.839,0,0,1,3.707-3.7,1.267,1.267,0,0,1,1.335,1.122,1.173,1.173,0,0,1-1.052,1.362,1.5,1.5,0,0,0-1.5,1.511,1.18,1.18,0,0,1-1.374,1.043,1.268,1.268,0,0,1-1.12-1.338" transform="translate(-20.541 -184.378)" fill="#14b8ff"/>
  <path id="Path_395" data-name="Path 395" d="M138.561,34.82a42.21,42.21,0,0,0-4.413-11.9A119.965,119.965,0,0,0,118.7.775c-.888-1.04-1.576-1.033-2.481.012a135.763,135.763,0,0,0-9.721,12.627,73.56,73.56,0,0,0-8.88,16.7,24.085,24.085,0,0,0-.938,14.629,21.667,21.667,0,0,0,24.149,15.767,21.949,21.949,0,0,0,18.266-21.436c-.172-1.42-.271-2.853-.528-4.256M116.393,29.7a1.065,1.065,0,0,1-1.222,1.144h-4.6V44.163a1.08,1.08,0,0,1-1.2,1.222h-.364c-.754,0-1.144-.416-1.144-1.222V30.848h-4.6c-.806,0-1.248-.416-1.248-1.144v-.13c0-.728.442-1.118,1.248-1.118h11.91c.806,0,1.222.39,1.222,1.118ZM133.01,45.125c0,.078-.39.26-.884.26-.78,0-1.456-.39-1.456-2.158v-.312a6.263,6.263,0,0,1-5.591,2.678c-4.863,0-7.958-3.667-7.958-8.686,0-5.149,3.537-8.79,8.634-8.79a8.539,8.539,0,0,1,4.707,1.248,3.127,3.127,0,0,1,1.664,2.237,1.411,1.411,0,0,1-1.456,1.378,5.75,5.75,0,0,0-4.863-2.549c-3.485,0-5.929,2.653-5.929,6.5,0,3.771,2.158,6.5,5.721,6.5,2.731,0,4.707-1.535,5.045-3.771V38.6h-3.953c-.91,0-1.352-.286-1.352-1.014v-.13c0-.754.442-1.04,1.352-1.04h4.889a1.344,1.344,0,0,1,1.43,1.534Z" transform="translate(-76.911 0)" fill="#d90000"/>
</svg>
