<svg xmlns="http://www.w3.org/2000/svg" width="135.025" height="135.25" viewBox="0 0 135.025 135.25">
  <g id="Group_791" data-name="Group 791" transform="translate(-1886.488 -1765.75)">
    <path id="Path_461" data-name="Path 461" d="M62.753,149.217A63.332,63.332,0,0,1,.764,95.789C-4.4,63.259,17.139,31.956,49.495,24.975a8.965,8.965,0,0,1,10.943,8.163c.5,6.829.681,13.682.966,20.527.372,8.963.694,17.93,1.072,26.893.156,3.7,2.237,5.668,5.926,5.67q23.008.009,46.015-.007a10.351,10.351,0,0,1,7.1,2.39,8.371,8.371,0,0,1,3,8c-3.7,24.815-24.17,46.15-49.018,50.923-4.2.807-8.492,1.131-12.742,1.679" transform="translate(1886.488 1751.783)" fill="#206aa3"/>
    <path id="Path_462" data-name="Path 462" d="M217.91,71.869a.622.622,0,0,0-.454.557c-.019.321-.008.644-.008.966V75h-2.52c-.007-.122-.018-.218-.018-.318,0-.78,0-1.561,0-2.341,0-.444-.218-.7-.576-.735-.416-.036-.687.235-.69.721-.006,1.276,0,2.551,0,3.827,0,.793-.006,1.585,0,2.378a.62.62,0,0,0,.564.672l.033,0a.647.647,0,0,0,.664-.629.25.25,0,0,0,0-.025c.011-.148,0-.3,0-.446V76.313h2.539v.432c0,.694-.007,1.387.006,2.081a.6.6,0,0,0,.57.622h.031a.624.624,0,0,0,.654-.577,1.65,1.65,0,0,0,.007-.223V72.667a1.233,1.233,0,0,0-.038-.366.623.623,0,0,0-.767-.432" transform="translate(1765.98 1725.362)" fill="#d90000"/>
    <path id="Path_463" data-name="Path 463" d="M193.506,86.74a3.17,3.17,0,1,0-.017,6.339h0a3.17,3.17,0,0,0,.014-6.339m.088,2.512h-.006c-.567.123-.634.189-.731.722a.618.618,0,0,1-.67.554.637.637,0,0,1-.589-.682h0A1.925,1.925,0,0,1,193.464,88h0a.633.633,0,0,1,.66.572.61.61,0,0,1-.53.681" transform="translate(1779.129 1716.822)" fill="#d90000"/>
    <path id="Path_464" data-name="Path 464" d="M247.233,78.5a.632.632,0,0,0-.115,0c-.891-.012-1.783,0-2.675,0H244v0h0v-.479q0-2.563,0-5.126c0-.453-.238-.723-.614-.731a.642.642,0,0,0-.653.631c0,.024,0,.048,0,.073q-.01,3.1,0,6.2a.626.626,0,0,0,.691.7q1.839.013,3.678,0a.635.635,0,0,0,.126-1.263" transform="translate(1749.568 1725.049)" fill="#d90000"/>
    <path id="Path_465" data-name="Path 465" d="M230.729,72.155c-.582-.008-1.163,0-1.744,0s-.8.218-.8.815q0,1.485,0,2.971h0c0,1.04,0,2.079,0,3.119a.617.617,0,0,0,.677.7c.668.01,1.338.021,2.005-.009a2.485,2.485,0,0,0,2.38-2.469q.023-1.318,0-2.636a2.515,2.515,0,0,0-2.523-2.491m1.252,5.114a1.221,1.221,0,0,1-1.2,1.217c-.429.017-.859,0-1.308,0V73.423c.467,0,.9-.019,1.33,0a1.232,1.232,0,0,1,1.177,1.208q.025,1.317,0,2.634" transform="translate(1757.777 1725.053)" fill="#d90000"/>
    <path id="Path_466" data-name="Path 466" d="M265.04,57.6a1.9,1.9,0,0,0-1.89,1.911h0a1.9,1.9,0,0,0,1.887,1.9,1.92,1.92,0,0,0,1.913-1.918,1.9,1.9,0,0,0-1.91-1.89" transform="translate(1738.053 1733.261)" fill="#d90000"/>
    <path id="Path_467" data-name="Path 467" d="M232.835,48.019q-7.777-35.137-42.02-46.388A49.666,49.666,0,0,0,184.962.2c-6.12-1.2-11.093,3.038-11.11,9.532q-.053,21.782-.01,43.565c0,3.855,2.075,5.9,5.971,5.905q10.853.009,21.706,0c7.344,0,14.688.051,22.032-.017,6.34-.06,10.617-5.144,9.283-11.169M189.19,44.136a10.28,10.28,0,0,1-1.213-.344.376.376,0,0,0-.473.131,4.435,4.435,0,0,1-7.672-2.112,2.258,2.258,0,0,0-.077-.242v-1.19c.058-.212.111-.426.174-.636a4.544,4.544,0,0,1,1.366-2.129.5.5,0,0,0,.18-.328,8.117,8.117,0,0,1,2.1-5.643,18.273,18.273,0,0,1,5.375-4.34,14.736,14.736,0,0,1,2.014-.95c-.286.567-.562,1.142-.866,1.7a.855.855,0,0,1-.349.262,18.069,18.069,0,0,0-4.932,3.836,7.758,7.758,0,0,0-2.052,4.126c-.019.145-.023.292-.037.483a4.478,4.478,0,0,1,5.62,5.834c.605.156,1.2.293,1.787.468a1.307,1.307,0,0,1,.539.33,7.974,7.974,0,0,1,.972,1.221c-.82-.157-1.643-.3-2.46-.475m21.716-8.32a11,11,0,0,1-9.132,10.724,10.886,10.886,0,0,1-12.359-8.965,13.334,13.334,0,0,1,.942-6.906,38.126,38.126,0,0,1,4.181-7.68,69.039,69.039,0,0,1,4.939-6.416c.39-.45.766-.482,1.122-.067a59.872,59.872,0,0,1,7.908,11.343,20.841,20.841,0,0,1,2.139,5.833c.128.7.174,1.422.262,2.133Zm5.84-1.575a13.063,13.063,0,0,1-3.883,4.628c-.442.353-.911.674-1.429,1.054v0h0c.17-.678.309-1.275.475-1.864.028-.1.163-.178.258-.255a11.84,11.84,0,0,0,3.409-4.021,5.145,5.145,0,0,0,.487-3.568c-.024-.095-.06-.186-.1-.3a3.183,3.183,0,0,1-4.291-3.963,2.229,2.229,0,0,0-.318-.146c-.891-.256-1.787-.5-2.672-.766a.92.92,0,0,1-.456-.315,5.562,5.562,0,0,1-.647-1.191c.826.174,1.66.319,2.475.534.692.182,1.365.439,2.04.679a.379.379,0,0,0,.454-.079,3.158,3.158,0,0,1,4.664,4.218.547.547,0,0,0-.1.416,6.264,6.264,0,0,1-.364,4.94" transform="translate(1788.434 1765.751)" fill="#14b8ff"/>
  </g>
</svg>
